# xmcd
#
# Track frame offsets: 
#        150
#        7675
#        18992
#        26200
#        37837
#        47650
#        60862
#        71680
#        83627
#        93935
#        104800
#        113645
#        127200
#        135937
#        146045
#        154287
#        165580
#        174327
#        183142
#        194682
#
# Disc length: 2738 seconds
#
# Revision: 1
# Processed by: cddbd v1.5.2PL0 Copyright (c) Steve Scherf et al.
# Submitted via: ExactAudioCopy v1.0b3
#
DISCID=010ab014
DTITLE=Lil. Son Jackson - Blues Come to Texas
DYEAR=1981
DGENRE=Blues
TTITLE0=Blues Come to Texas
TTITLE1=Cairo Blues
TTITLE2=Ticket Agent
TTITLE3=Louise Blues
TTITLE4=Sugar Mama
TTITLE5=The Girl I Love
TTITLE6=Santa Fe Blues
TTITLE7=Turn Your Lamp Down Low
TTITLE8=Groundhog Blues
TTITLE9=Gambler Blues
TTITLE10=Charley Cherry (Take 1)
TTITLE11=Charley Cherry (Take 2)
TTITLE12=West Dallas Blues
TTITLE13=Rollin' Mill Went Down
TTITLE14=Red River Blues
TTITLE15=Johnnie Mae
TTITLE16=Buck Dance
TTITLE17=I Walked From Dallas
TTITLE18=Rock Me
TTITLE19=Roberta Blues
EXTD=
EXTT0=
EXTT1=
EXTT2=
EXTT3=
EXTT4=
EXTT5=
EXTT6=
EXTT7=
EXTT8=
EXTT9=
EXTT10=
EXTT11=
EXTT12=
EXTT13=
EXTT14=
EXTT15=
EXTT16=
EXTT17=
EXTT18=
EXTT19=
PLAYORDER=
